<?xml version="1.0" encoding="utf-8"?>
<svg xmlns="http://www.w3.org/2000/svg" height="456" width="456" viewBox="0 0 456 456">
    <g>
        <path id="path1" transform="rotate(0,228,228) translate(105,128.059378571175) scale(7.68774010990963,7.68774010990963)  " fill="#FFEEEE" d="M15.999996,12.216994C14.999994,12.216994 14.18799,13.023992 14.18799,14.014991 14.18799,15.00699 14.999994,15.81299 15.999996,15.81299 17,15.81299 17.812002,15.00699 17.812002,14.014991 17.812002,13.023992 17,12.216994 15.999996,12.216994z M15.999996,10.216996C18.102003,10.216996 19.813008,11.920994 19.813008,14.014991 19.813008,16.108989 18.102003,17.812988 15.999996,17.812988 13.89799,17.812988 12.186984,16.108989 12.186984,14.014991 12.186984,11.920994 13.89799,10.216996 15.999996,10.216996z M26.517006,9.6179969C26.293007,9.6179969 26.111008,9.7969987 26.111008,10.017 26.111008,10.238001 26.293007,10.416002 26.517006,10.416002 26.741005,10.416002 26.923006,10.238001 26.923006,10.017 26.923006,9.7969987 26.741005,9.6179969 26.517006,9.6179969z M15.999996,8.4860122C12.933001,8.4860122 10.438005,10.96601 10.438005,14.015007 10.438005,17.064005 12.933001,19.544002 15.999996,19.544002 19.066992,19.544002 21.561987,17.064005 21.561987,14.015007 21.561987,10.96601 19.066992,8.4860122 15.999996,8.4860122z M26.517006,7.6179864C27.844004,7.6179864 28.923001,8.6939923 28.923001,10.017 28.923001,11.340007 27.844004,12.416012 26.517006,12.416012 25.19001,12.416012 24.111012,11.340007 24.111012,10.017 24.111012,8.6939923 25.19001,7.6179864 26.517006,7.6179864z M15.999996,6.4860136C20.169991,6.4860136 23.561985,9.8630111 23.561985,14.015007 23.561985,18.166004 20.169991,21.544 15.999996,21.544 11.830003,21.544 8.4380085,18.166004 8.4380085,14.015007 8.4380085,9.8630111 11.830003,6.4860136 15.999996,6.4860136z M20.785019,1.9640195L11.345023,2 9.5070126,5.0840146C9.1810238,5.7310178,8.5070126,6.1460263,7.7750189,6.1460263L1.9370104,6.1460263 1.999022,24.077026 30.061991,24 29.999003,6.069 24.687971,6.1460263C23.994002,6.1460263,23.356978,5.7799985,23.010969,5.1860044z M11.345023,1.4210855E-13L20.837021,1.4210855E-13C21.531967,-2.6965736E-07,22.168991,0.36599704,22.514998,0.96002206L24.721968,4.1460263 30.061991,4.1460263C31.129982,4.1460263,31.999001,5.0090024,31.999001,6.069L31.999001,24.077026C31.999001,25.137024,31.129982,26,30.061991,26L1.9370104,26C0.86901796,26,0,25.137024,0,24.077026L0,6.069C0,5.0090024,0.86901796,4.1460263,1.9370104,4.1460263L7.7750189,4.1460263 9.6130307,1.0599974C9.9399951,0.4140012,10.614006,-2.6965736E-07,11.345023,1.4210855E-13z" />
    </g>
</svg>

