<?xml version="1.0" encoding="utf-8"?>
<svg xmlns="http://www.w3.org/2000/svg" height="32" width="32" viewBox="0 0 32 32">
  <g>
    <path id="path1" transform="rotate(0,16,16) translate(5,7.75) scale(0.6875,0.6875)  " fill="#070707" d="M26,16L26,18 26,20 30,20 30,16z M2,16L2,20 6,20 6,18 6,16z M26,10L26,14 30,14 30,10z M2,10L2,14 6,14 6,10z M8,6L8,18 24,18 24,6z M26,4L26,6 26,8 30,8 30,4z M2,4L2,8 6,8 6,6 6,4z M0,0L2,0 2,2 6,2 6,0 8,0 8,4 24,4 24,0 26,0 26,2 30,2 30,0 32,0 32,24 30,24 30,22 26,22 26,24 24,24 24,20 8,20 8,24 6,24 6,22 2,22 2,24 0,24z" />
  </g>
</svg>

